<svg width="173" height="69" viewBox="0 0 173 69" fill="none" xmlns="http://www.w3.org/2000/svg">
<path d="M0 10C0 4.47715 4.47715 0 10 0H79V69H10C4.47715 69 0 64.5228 0 59V10Z" fill="#262626"/>
<path d="M75 0H163C168.523 0 173 4.47715 173 10V59C173 64.5228 168.523 69 163 69H75V0Z" fill="white"/>
<path d="M11.7 19.7H22.6C25.7 19.7 27.25 21.1667 27.25 24.1V46.6C27.25 49.5333 25.7 51 22.6 51H11.7V19.7ZM22.7 46V24.7C22.7 24.1 22.6 23.7167 22.4 23.55C22.2 23.35 21.8 23.25 21.2 23.25H16.25V47.45H21.2C21.8 47.45 22.2 47.3667 22.4 47.2C22.6 47 22.7 46.6 22.7 46ZM36.7555 47.35H45.8055V51H32.2055V19.7H45.4555V23.35H36.7555V33H43.9555V36.65H36.7555V47.35ZM60.0441 19.7H64.6941L59.0441 51H52.6441L46.9941 19.7H51.6441L55.7941 46.85L60.0441 19.7Z" fill="white"/>
<path d="M87.7 19.7H98.6C101.7 19.7 103.25 21.1667 103.25 24.1V46.6C103.25 49.5333 101.7 51 98.6 51H87.7V19.7ZM98.7 46V24.7C98.7 24.1 98.6 23.7167 98.4 23.55C98.2 23.35 97.8 23.25 97.2 23.25H92.25V47.45H97.2C97.8 47.45 98.2 47.3667 98.4 47.2C98.6 47 98.7 46.6 98.7 46ZM119.705 51L118.455 43.75H111.855L110.705 51H106.205L111.755 19.7H118.305L124.255 51H119.705ZM112.405 40.1H117.855L115.005 23.6L112.405 40.1ZM136.444 45.9V38.25C136.444 37.65 136.344 37.2667 136.144 37.1C135.977 36.9 135.594 36.8 134.994 36.8H131.294C128.26 36.8 126.744 35.3167 126.744 32.35V24.1C126.744 21.1667 128.294 19.7 131.394 19.7H136.294C139.394 19.7 140.944 21.1667 140.944 24.1V28.7H136.394V24.8C136.394 24.2 136.294 23.8167 136.094 23.65C135.894 23.45 135.494 23.35 134.894 23.35H132.794C132.194 23.35 131.794 23.45 131.594 23.65C131.394 23.8167 131.294 24.2 131.294 24.8V31.75C131.294 32.35 131.394 32.75 131.594 32.95C131.794 33.1167 132.194 33.2 132.794 33.2H136.444C139.51 33.2 141.044 34.6667 141.044 37.6V46.6C141.044 49.5333 139.477 51 136.344 51H131.494C128.394 51 126.844 49.5333 126.844 46.6V42H131.394V45.9C131.394 46.5 131.494 46.9 131.694 47.1C131.894 47.2667 132.294 47.35 132.894 47.35H134.994C135.594 47.35 135.977 47.2667 136.144 47.1C136.344 46.9 136.444 46.5 136.444 45.9ZM156.66 19.7H161.16V51H156.66V37.25H150.01V51H145.51V19.7H150.01V33.6H156.66V19.7Z" fill="#262626"/>
</svg>
