<svg width="124" height="44" viewBox="0 0 124 44" fill="none" xmlns="http://www.w3.org/2000/svg">
<path d="M56.6243 4.25806H0V40.4516H56.6243V4.25806Z" fill="#262626"/>
<path d="M124 4H57V40H124V4Z" fill="white"/>
<path d="M8.38611 11.8516H16.1988C18.4208 11.8516 19.5318 12.8925 19.5318 14.9742V30.9419C19.5318 33.0236 18.4208 34.0645 16.1988 34.0645H8.38611V11.8516ZM16.2705 30.5161V15.4C16.2705 14.9742 16.1988 14.7022 16.0555 14.5839C15.9121 14.4419 15.6254 14.371 15.1954 14.371H11.6474V31.5452H15.1954C15.6254 31.5452 15.9121 31.486 16.0555 31.3677C16.1988 31.2258 16.2705 30.9419 16.2705 30.5161ZM26.345 31.4742H32.8317V34.0645H23.0837V11.8516H32.5808V14.4419H26.345V21.2903H31.5057V23.8806H26.345V31.4742ZM43.0374 11.8516H46.3703L42.3206 34.0645H37.7333L33.6836 11.8516H37.0166L39.9911 31.1193L43.0374 11.8516Z" fill="white"/>
<path d="M62.8601 11.8516H70.6728C72.8948 11.8516 74.0058 12.8925 74.0058 14.9742V30.9419C74.0058 33.0236 72.8948 34.0645 70.6728 34.0645H62.8601V11.8516ZM70.7445 30.5161V15.4C70.7445 14.9742 70.6728 14.7022 70.5295 14.5839C70.3861 14.4419 70.0994 14.371 69.6694 14.371H66.1214V31.5452H69.6694C70.0994 31.5452 70.3861 31.486 70.5295 31.3677C70.6728 31.2258 70.7445 30.9419 70.7445 30.5161ZM85.8001 34.0645L84.9042 28.9193H80.1735L79.3493 34.0645H76.1238L80.1019 11.8516H84.7967L89.0614 34.0645H85.8001ZM80.5678 26.329H84.4741L82.4313 14.6193L80.5678 26.329ZM97.798 30.4452V25.0161C97.798 24.5903 97.7263 24.3183 97.583 24.2C97.4633 24.0581 97.1888 23.9871 96.7587 23.9871H94.1067C91.932 23.9871 90.8454 22.9344 90.8454 20.829V14.9742C90.8454 12.8925 91.9564 11.8516 94.1784 11.8516H97.6905C99.9125 11.8516 101.023 12.8925 101.023 14.9742V18.2387H97.7622V15.471C97.7622 15.0452 97.6905 14.7731 97.5471 14.6548C97.4038 14.5129 97.1171 14.4419 96.687 14.4419H95.1818C94.7518 14.4419 94.4651 14.5129 94.3217 14.6548C94.1784 14.7731 94.1067 15.0452 94.1067 15.471V20.4032C94.1067 20.829 94.1784 21.1129 94.3217 21.2548C94.4651 21.3731 94.7518 21.4323 95.1818 21.4323H97.798C99.9956 21.4323 101.095 22.4731 101.095 24.5548V30.9419C101.095 33.0236 99.972 34.0645 97.7263 34.0645H94.25C92.0281 34.0645 90.9171 33.0236 90.9171 30.9419V27.6774H94.1784V30.4452C94.1784 30.871 94.25 31.1548 94.3934 31.2968C94.5367 31.4151 94.8234 31.4742 95.2535 31.4742H96.7587C97.1888 31.4742 97.4633 31.4151 97.583 31.2968C97.7263 31.1548 97.798 30.871 97.798 30.4452ZM112.288 11.8516H115.514V34.0645H112.288V24.3064H107.522V34.0645H104.296V11.8516H107.522V21.7161H112.288V11.8516Z" fill="#262626"/>
</svg>
